<mxfile host="app.diagrams.net" modified="2023-03-18T15:40:45.651Z" agent="5.0 (Windows NT 10.0; Win64; x64) AppleWebKit/537.36 (KHTML, like Gecko) Chrome/111.0.0.0 Safari/537.36 Edg/111.0.1661.41" etag="-vkj6hfo6NE4DelNRoLr" version="21.0.6" type="github">
  <diagram name="第 1 页" id="BblZ0Ps7UBMR6es_Q8gy">
    <mxGraphModel dx="1554" dy="889" grid="1" gridSize="10" guides="1" tooltips="1" connect="1" arrows="1" fold="1" page="1" pageScale="1" pageWidth="827" pageHeight="1169" math="0" shadow="0">
      <root>
        <mxCell id="0" />
        <mxCell id="1" parent="0" />
        <mxCell id="FxUDSGm3Ph7njkrJ4Way-2" value="待修正样本集L1" style="rounded=0;whiteSpace=wrap;html=1;fillColor=#dae8fc;strokeColor=#6c8ebf;" parent="1" vertex="1">
          <mxGeometry x="140" y="200" width="100" height="30" as="geometry" />
        </mxCell>
        <mxCell id="FxUDSGm3Ph7njkrJ4Way-3" value="" style="rounded=0;whiteSpace=wrap;html=1;fillColor=#fff2cc;strokeColor=#d6b656;" parent="1" vertex="1">
          <mxGeometry x="140" y="230" width="100" height="30" as="geometry" />
        </mxCell>
        <mxCell id="FxUDSGm3Ph7njkrJ4Way-4" value="" style="rounded=0;whiteSpace=wrap;html=1;fillColor=#fff2cc;strokeColor=#d6b656;" parent="1" vertex="1">
          <mxGeometry x="140" y="260" width="100" height="30" as="geometry" />
        </mxCell>
        <mxCell id="FxUDSGm3Ph7njkrJ4Way-5" value="&amp;nbsp;... ..." style="text;html=1;align=center;verticalAlign=middle;resizable=0;points=[];autosize=1;strokeColor=none;fillColor=none;" parent="1" vertex="1">
          <mxGeometry x="165" y="290" width="50" height="30" as="geometry" />
        </mxCell>
        <mxCell id="FxUDSGm3Ph7njkrJ4Way-6" value="" style="rounded=0;whiteSpace=wrap;html=1;fillColor=#fff2cc;strokeColor=#d6b656;" parent="1" vertex="1">
          <mxGeometry x="140" y="320" width="100" height="30" as="geometry" />
        </mxCell>
        <mxCell id="FxUDSGm3Ph7njkrJ4Way-11" value="" style="edgeStyle=orthogonalEdgeStyle;rounded=0;orthogonalLoop=1;jettySize=auto;html=1;" parent="1" source="FxUDSGm3Ph7njkrJ4Way-7" target="FxUDSGm3Ph7njkrJ4Way-10" edge="1">
          <mxGeometry relative="1" as="geometry" />
        </mxCell>
        <mxCell id="FxUDSGm3Ph7njkrJ4Way-7" value="采样集Q1" style="rounded=0;whiteSpace=wrap;html=1;fillColor=#fff2cc;strokeColor=#d6b656;" parent="1" vertex="1">
          <mxGeometry x="330" y="200" width="100" height="30" as="geometry" />
        </mxCell>
        <mxCell id="FxUDSGm3Ph7njkrJ4Way-14" value="" style="edgeStyle=orthogonalEdgeStyle;rounded=0;orthogonalLoop=1;jettySize=auto;html=1;" parent="1" source="FxUDSGm3Ph7njkrJ4Way-8" target="FxUDSGm3Ph7njkrJ4Way-12" edge="1">
          <mxGeometry relative="1" as="geometry" />
        </mxCell>
        <mxCell id="FxUDSGm3Ph7njkrJ4Way-8" value="" style="rounded=0;whiteSpace=wrap;html=1;fillColor=#fff2cc;strokeColor=#d6b656;" parent="1" vertex="1">
          <mxGeometry x="330" y="260" width="100" height="30" as="geometry" />
        </mxCell>
        <mxCell id="FxUDSGm3Ph7njkrJ4Way-15" value="" style="edgeStyle=orthogonalEdgeStyle;rounded=0;orthogonalLoop=1;jettySize=auto;html=1;" parent="1" source="FxUDSGm3Ph7njkrJ4Way-9" target="FxUDSGm3Ph7njkrJ4Way-13" edge="1">
          <mxGeometry relative="1" as="geometry" />
        </mxCell>
        <mxCell id="FxUDSGm3Ph7njkrJ4Way-9" value="采样集Qk" style="rounded=0;whiteSpace=wrap;html=1;fillColor=#fff2cc;strokeColor=#d6b656;" parent="1" vertex="1">
          <mxGeometry x="330" y="320" width="100" height="30" as="geometry" />
        </mxCell>
        <mxCell id="FxUDSGm3Ph7njkrJ4Way-26" value="" style="edgeStyle=orthogonalEdgeStyle;rounded=0;orthogonalLoop=1;jettySize=auto;html=1;" parent="1" source="FxUDSGm3Ph7njkrJ4Way-10" target="FxUDSGm3Ph7njkrJ4Way-17" edge="1">
          <mxGeometry relative="1" as="geometry" />
        </mxCell>
        <mxCell id="FxUDSGm3Ph7njkrJ4Way-10" value="观点句识别器1" style="rounded=1;whiteSpace=wrap;html=1;fillColor=#fff2cc;strokeColor=#d6b656;" parent="1" vertex="1">
          <mxGeometry x="475" y="200" width="90" height="30" as="geometry" />
        </mxCell>
        <mxCell id="FxUDSGm3Ph7njkrJ4Way-27" value="" style="edgeStyle=orthogonalEdgeStyle;rounded=0;orthogonalLoop=1;jettySize=auto;html=1;" parent="1" source="FxUDSGm3Ph7njkrJ4Way-12" target="FxUDSGm3Ph7njkrJ4Way-24" edge="1">
          <mxGeometry relative="1" as="geometry" />
        </mxCell>
        <mxCell id="FxUDSGm3Ph7njkrJ4Way-12" value="" style="rounded=1;whiteSpace=wrap;html=1;fillColor=#fff2cc;strokeColor=#d6b656;" parent="1" vertex="1">
          <mxGeometry x="475" y="260" width="90" height="30" as="geometry" />
        </mxCell>
        <mxCell id="FxUDSGm3Ph7njkrJ4Way-28" value="" style="edgeStyle=orthogonalEdgeStyle;rounded=0;orthogonalLoop=1;jettySize=auto;html=1;" parent="1" source="FxUDSGm3Ph7njkrJ4Way-13" target="FxUDSGm3Ph7njkrJ4Way-25" edge="1">
          <mxGeometry relative="1" as="geometry" />
        </mxCell>
        <mxCell id="FxUDSGm3Ph7njkrJ4Way-13" value="观点句识别器k" style="rounded=1;whiteSpace=wrap;html=1;fillColor=#fff2cc;strokeColor=#d6b656;" parent="1" vertex="1">
          <mxGeometry x="475" y="320" width="90" height="30" as="geometry" />
        </mxCell>
        <mxCell id="FxUDSGm3Ph7njkrJ4Way-17" value="" style="rounded=0;whiteSpace=wrap;html=1;fillColor=#dae8fc;strokeColor=#6c8ebf;" parent="1" vertex="1">
          <mxGeometry x="605" y="200" width="100" height="30" as="geometry" />
        </mxCell>
        <mxCell id="FxUDSGm3Ph7njkrJ4Way-34" value="" style="edgeStyle=orthogonalEdgeStyle;rounded=0;orthogonalLoop=1;jettySize=auto;html=1;" parent="1" source="FxUDSGm3Ph7njkrJ4Way-24" target="FxUDSGm3Ph7njkrJ4Way-29" edge="1">
          <mxGeometry relative="1" as="geometry" />
        </mxCell>
        <mxCell id="FxUDSGm3Ph7njkrJ4Way-24" value="" style="rounded=0;whiteSpace=wrap;html=1;fillColor=#dae8fc;strokeColor=#6c8ebf;" parent="1" vertex="1">
          <mxGeometry x="605" y="260" width="100" height="30" as="geometry" />
        </mxCell>
        <mxCell id="FxUDSGm3Ph7njkrJ4Way-25" value="" style="rounded=0;whiteSpace=wrap;html=1;fillColor=#dae8fc;strokeColor=#6c8ebf;" parent="1" vertex="1">
          <mxGeometry x="605" y="320" width="100" height="30" as="geometry" />
        </mxCell>
        <mxCell id="FxUDSGm3Ph7njkrJ4Way-29" value="修正样本集L1" style="rounded=0;whiteSpace=wrap;html=1;fillColor=#7EA6E0;strokeColor=#6c8ebf;" parent="1" vertex="1">
          <mxGeometry x="760" y="260" width="100" height="30" as="geometry" />
        </mxCell>
        <mxCell id="FxUDSGm3Ph7njkrJ4Way-30" value="...&amp;nbsp; ..." style="text;html=1;align=center;verticalAlign=middle;resizable=0;points=[];autosize=1;strokeColor=none;fillColor=none;" parent="1" vertex="1">
          <mxGeometry x="355" y="290" width="50" height="30" as="geometry" />
        </mxCell>
        <mxCell id="FxUDSGm3Ph7njkrJ4Way-31" value="...&amp;nbsp; ..." style="text;html=1;align=center;verticalAlign=middle;resizable=0;points=[];autosize=1;strokeColor=none;fillColor=none;" parent="1" vertex="1">
          <mxGeometry x="495" y="290" width="50" height="30" as="geometry" />
        </mxCell>
        <mxCell id="FxUDSGm3Ph7njkrJ4Way-32" value="...&amp;nbsp; ..." style="text;html=1;align=center;verticalAlign=middle;resizable=0;points=[];autosize=1;strokeColor=none;fillColor=none;" parent="1" vertex="1">
          <mxGeometry x="630" y="290" width="50" height="30" as="geometry" />
        </mxCell>
        <mxCell id="FxUDSGm3Ph7njkrJ4Way-33" value="" style="endArrow=classic;html=1;rounded=0;exitX=1;exitY=0.5;exitDx=0;exitDy=0;entryX=0;entryY=0.5;entryDx=0;entryDy=0;" parent="1" source="FxUDSGm3Ph7njkrJ4Way-17" target="FxUDSGm3Ph7njkrJ4Way-29" edge="1">
          <mxGeometry width="50" height="50" relative="1" as="geometry">
            <mxPoint x="510" y="360" as="sourcePoint" />
            <mxPoint x="560" y="310" as="targetPoint" />
          </mxGeometry>
        </mxCell>
        <mxCell id="FxUDSGm3Ph7njkrJ4Way-35" value="" style="endArrow=classic;html=1;rounded=0;exitX=1;exitY=0.5;exitDx=0;exitDy=0;entryX=0;entryY=0.5;entryDx=0;entryDy=0;" parent="1" source="FxUDSGm3Ph7njkrJ4Way-25" target="FxUDSGm3Ph7njkrJ4Way-29" edge="1">
          <mxGeometry width="50" height="50" relative="1" as="geometry">
            <mxPoint x="510" y="360" as="sourcePoint" />
            <mxPoint x="560" y="310" as="targetPoint" />
          </mxGeometry>
        </mxCell>
        <mxCell id="FxUDSGm3Ph7njkrJ4Way-63" value="" style="shape=flexArrow;endArrow=classic;html=1;rounded=0;" parent="1" edge="1">
          <mxGeometry width="50" height="50" relative="1" as="geometry">
            <mxPoint x="250" y="280" as="sourcePoint" />
            <mxPoint x="320" y="280" as="targetPoint" />
          </mxGeometry>
        </mxCell>
        <mxCell id="FxUDSGm3Ph7njkrJ4Way-64" value="随机采样" style="text;html=1;align=center;verticalAlign=middle;resizable=0;points=[];autosize=1;strokeColor=none;fillColor=none;" parent="1" vertex="1">
          <mxGeometry x="245" y="245" width="70" height="30" as="geometry" />
        </mxCell>
        <mxCell id="FxUDSGm3Ph7njkrJ4Way-65" value="" style="rounded=0;whiteSpace=wrap;html=1;fillColor=#fff2cc;strokeColor=#d6b656;" parent="1" vertex="1">
          <mxGeometry x="140" y="390" width="100" height="30" as="geometry" />
        </mxCell>
        <mxCell id="FxUDSGm3Ph7njkrJ4Way-66" value="待修正样本集L2" style="rounded=0;whiteSpace=wrap;html=1;fillColor=#dae8fc;strokeColor=#6c8ebf;" parent="1" vertex="1">
          <mxGeometry x="140" y="420" width="100" height="30" as="geometry" />
        </mxCell>
        <mxCell id="FxUDSGm3Ph7njkrJ4Way-67" value="" style="rounded=0;whiteSpace=wrap;html=1;fillColor=#fff2cc;strokeColor=#d6b656;" parent="1" vertex="1">
          <mxGeometry x="140" y="450" width="100" height="30" as="geometry" />
        </mxCell>
        <mxCell id="FxUDSGm3Ph7njkrJ4Way-68" value="&amp;nbsp;... ..." style="text;html=1;align=center;verticalAlign=middle;resizable=0;points=[];autosize=1;strokeColor=none;fillColor=none;" parent="1" vertex="1">
          <mxGeometry x="165" y="480" width="50" height="30" as="geometry" />
        </mxCell>
        <mxCell id="FxUDSGm3Ph7njkrJ4Way-69" value="" style="rounded=0;whiteSpace=wrap;html=1;fillColor=#fff2cc;strokeColor=#d6b656;" parent="1" vertex="1">
          <mxGeometry x="140" y="510" width="100" height="30" as="geometry" />
        </mxCell>
        <mxCell id="FxUDSGm3Ph7njkrJ4Way-70" value="" style="edgeStyle=orthogonalEdgeStyle;rounded=0;orthogonalLoop=1;jettySize=auto;html=1;" parent="1" source="FxUDSGm3Ph7njkrJ4Way-71" target="FxUDSGm3Ph7njkrJ4Way-77" edge="1">
          <mxGeometry relative="1" as="geometry" />
        </mxCell>
        <mxCell id="FxUDSGm3Ph7njkrJ4Way-71" value="" style="rounded=0;whiteSpace=wrap;html=1;fillColor=#fff2cc;strokeColor=#d6b656;" parent="1" vertex="1">
          <mxGeometry x="330" y="390" width="100" height="30" as="geometry" />
        </mxCell>
        <mxCell id="FxUDSGm3Ph7njkrJ4Way-72" value="" style="edgeStyle=orthogonalEdgeStyle;rounded=0;orthogonalLoop=1;jettySize=auto;html=1;" parent="1" source="FxUDSGm3Ph7njkrJ4Way-73" target="FxUDSGm3Ph7njkrJ4Way-79" edge="1">
          <mxGeometry relative="1" as="geometry" />
        </mxCell>
        <mxCell id="FxUDSGm3Ph7njkrJ4Way-73" value="" style="rounded=0;whiteSpace=wrap;html=1;fillColor=#fff2cc;strokeColor=#d6b656;" parent="1" vertex="1">
          <mxGeometry x="330" y="450" width="100" height="30" as="geometry" />
        </mxCell>
        <mxCell id="FxUDSGm3Ph7njkrJ4Way-74" value="" style="edgeStyle=orthogonalEdgeStyle;rounded=0;orthogonalLoop=1;jettySize=auto;html=1;" parent="1" source="FxUDSGm3Ph7njkrJ4Way-75" target="FxUDSGm3Ph7njkrJ4Way-81" edge="1">
          <mxGeometry relative="1" as="geometry" />
        </mxCell>
        <mxCell id="FxUDSGm3Ph7njkrJ4Way-75" value="" style="rounded=0;whiteSpace=wrap;html=1;fillColor=#fff2cc;strokeColor=#d6b656;" parent="1" vertex="1">
          <mxGeometry x="330" y="510" width="100" height="30" as="geometry" />
        </mxCell>
        <mxCell id="FxUDSGm3Ph7njkrJ4Way-76" value="" style="edgeStyle=orthogonalEdgeStyle;rounded=0;orthogonalLoop=1;jettySize=auto;html=1;" parent="1" source="FxUDSGm3Ph7njkrJ4Way-77" target="FxUDSGm3Ph7njkrJ4Way-82" edge="1">
          <mxGeometry relative="1" as="geometry" />
        </mxCell>
        <mxCell id="FxUDSGm3Ph7njkrJ4Way-77" value="" style="rounded=1;whiteSpace=wrap;html=1;fillColor=#fff2cc;strokeColor=#d6b656;" parent="1" vertex="1">
          <mxGeometry x="475" y="390" width="90" height="30" as="geometry" />
        </mxCell>
        <mxCell id="FxUDSGm3Ph7njkrJ4Way-78" value="" style="edgeStyle=orthogonalEdgeStyle;rounded=0;orthogonalLoop=1;jettySize=auto;html=1;" parent="1" source="FxUDSGm3Ph7njkrJ4Way-79" target="FxUDSGm3Ph7njkrJ4Way-84" edge="1">
          <mxGeometry relative="1" as="geometry" />
        </mxCell>
        <mxCell id="FxUDSGm3Ph7njkrJ4Way-79" value="" style="rounded=1;whiteSpace=wrap;html=1;fillColor=#fff2cc;strokeColor=#d6b656;" parent="1" vertex="1">
          <mxGeometry x="475" y="450" width="90" height="30" as="geometry" />
        </mxCell>
        <mxCell id="FxUDSGm3Ph7njkrJ4Way-80" value="" style="edgeStyle=orthogonalEdgeStyle;rounded=0;orthogonalLoop=1;jettySize=auto;html=1;" parent="1" source="FxUDSGm3Ph7njkrJ4Way-81" target="FxUDSGm3Ph7njkrJ4Way-85" edge="1">
          <mxGeometry relative="1" as="geometry" />
        </mxCell>
        <mxCell id="FxUDSGm3Ph7njkrJ4Way-81" value="" style="rounded=1;whiteSpace=wrap;html=1;fillColor=#fff2cc;strokeColor=#d6b656;" parent="1" vertex="1">
          <mxGeometry x="475" y="510" width="90" height="30" as="geometry" />
        </mxCell>
        <mxCell id="FxUDSGm3Ph7njkrJ4Way-82" value="" style="rounded=0;whiteSpace=wrap;html=1;fillColor=#dae8fc;strokeColor=#6c8ebf;" parent="1" vertex="1">
          <mxGeometry x="605" y="390" width="100" height="30" as="geometry" />
        </mxCell>
        <mxCell id="FxUDSGm3Ph7njkrJ4Way-83" value="" style="edgeStyle=orthogonalEdgeStyle;rounded=0;orthogonalLoop=1;jettySize=auto;html=1;" parent="1" source="FxUDSGm3Ph7njkrJ4Way-84" target="FxUDSGm3Ph7njkrJ4Way-86" edge="1">
          <mxGeometry relative="1" as="geometry" />
        </mxCell>
        <mxCell id="FxUDSGm3Ph7njkrJ4Way-84" value="" style="rounded=0;whiteSpace=wrap;html=1;fillColor=#dae8fc;strokeColor=#6c8ebf;" parent="1" vertex="1">
          <mxGeometry x="605" y="450" width="100" height="30" as="geometry" />
        </mxCell>
        <mxCell id="FxUDSGm3Ph7njkrJ4Way-85" value="" style="rounded=0;whiteSpace=wrap;html=1;fillColor=#dae8fc;strokeColor=#6c8ebf;" parent="1" vertex="1">
          <mxGeometry x="605" y="510" width="100" height="30" as="geometry" />
        </mxCell>
        <mxCell id="FxUDSGm3Ph7njkrJ4Way-86" value="修正样本集L2" style="rounded=0;whiteSpace=wrap;html=1;fillColor=#7EA6E0;strokeColor=#6c8ebf;" parent="1" vertex="1">
          <mxGeometry x="760" y="450" width="100" height="30" as="geometry" />
        </mxCell>
        <mxCell id="FxUDSGm3Ph7njkrJ4Way-87" value="...&amp;nbsp; ..." style="text;html=1;align=center;verticalAlign=middle;resizable=0;points=[];autosize=1;strokeColor=none;fillColor=none;" parent="1" vertex="1">
          <mxGeometry x="355" y="480" width="50" height="30" as="geometry" />
        </mxCell>
        <mxCell id="FxUDSGm3Ph7njkrJ4Way-88" value="...&amp;nbsp; ..." style="text;html=1;align=center;verticalAlign=middle;resizable=0;points=[];autosize=1;strokeColor=none;fillColor=none;" parent="1" vertex="1">
          <mxGeometry x="495" y="480" width="50" height="30" as="geometry" />
        </mxCell>
        <mxCell id="FxUDSGm3Ph7njkrJ4Way-89" value="...&amp;nbsp; ..." style="text;html=1;align=center;verticalAlign=middle;resizable=0;points=[];autosize=1;strokeColor=none;fillColor=none;" parent="1" vertex="1">
          <mxGeometry x="630" y="480" width="50" height="30" as="geometry" />
        </mxCell>
        <mxCell id="FxUDSGm3Ph7njkrJ4Way-90" value="" style="endArrow=classic;html=1;rounded=0;exitX=1;exitY=0.5;exitDx=0;exitDy=0;entryX=0;entryY=0.5;entryDx=0;entryDy=0;" parent="1" source="FxUDSGm3Ph7njkrJ4Way-82" target="FxUDSGm3Ph7njkrJ4Way-86" edge="1">
          <mxGeometry width="50" height="50" relative="1" as="geometry">
            <mxPoint x="510" y="550" as="sourcePoint" />
            <mxPoint x="560" y="500" as="targetPoint" />
          </mxGeometry>
        </mxCell>
        <mxCell id="FxUDSGm3Ph7njkrJ4Way-91" value="" style="endArrow=classic;html=1;rounded=0;exitX=1;exitY=0.5;exitDx=0;exitDy=0;entryX=0;entryY=0.5;entryDx=0;entryDy=0;" parent="1" source="FxUDSGm3Ph7njkrJ4Way-85" target="FxUDSGm3Ph7njkrJ4Way-86" edge="1">
          <mxGeometry width="50" height="50" relative="1" as="geometry">
            <mxPoint x="510" y="550" as="sourcePoint" />
            <mxPoint x="560" y="500" as="targetPoint" />
          </mxGeometry>
        </mxCell>
        <mxCell id="FxUDSGm3Ph7njkrJ4Way-92" value="" style="shape=flexArrow;endArrow=classic;html=1;rounded=0;" parent="1" edge="1">
          <mxGeometry width="50" height="50" relative="1" as="geometry">
            <mxPoint x="250" y="470" as="sourcePoint" />
            <mxPoint x="320" y="470" as="targetPoint" />
          </mxGeometry>
        </mxCell>
        <mxCell id="FxUDSGm3Ph7njkrJ4Way-93" value="随机采样" style="text;html=1;align=center;verticalAlign=middle;resizable=0;points=[];autosize=1;strokeColor=none;fillColor=none;" parent="1" vertex="1">
          <mxGeometry x="245" y="435" width="70" height="30" as="geometry" />
        </mxCell>
        <mxCell id="FxUDSGm3Ph7njkrJ4Way-103" value="" style="shape=curlyBracket;whiteSpace=wrap;html=1;rounded=1;labelPosition=left;verticalLabelPosition=middle;align=right;verticalAlign=middle;fillColor=#7EA6E0;" parent="1" vertex="1">
          <mxGeometry x="112" y="200" width="20" height="150" as="geometry" />
        </mxCell>
        <mxCell id="FxUDSGm3Ph7njkrJ4Way-104" value="初始标签集" style="text;html=1;align=center;verticalAlign=middle;resizable=0;points=[];autosize=1;strokeColor=none;fillColor=none;" parent="1" vertex="1">
          <mxGeometry x="32" y="260" width="80" height="30" as="geometry" />
        </mxCell>
        <mxCell id="FxUDSGm3Ph7njkrJ4Way-105" value="" style="shape=curlyBracket;whiteSpace=wrap;html=1;rounded=1;labelPosition=left;verticalLabelPosition=middle;align=right;verticalAlign=middle;fillColor=#7EA6E0;" parent="1" vertex="1">
          <mxGeometry x="112" y="390" width="20" height="150" as="geometry" />
        </mxCell>
        <mxCell id="FxUDSGm3Ph7njkrJ4Way-106" value="初始标签集" style="text;html=1;align=center;verticalAlign=middle;resizable=0;points=[];autosize=1;strokeColor=none;fillColor=none;" parent="1" vertex="1">
          <mxGeometry x="32" y="450" width="80" height="30" as="geometry" />
        </mxCell>
        <mxCell id="1Am97N2l7TMJU1slrZH9-1" value="" style="rounded=0;whiteSpace=wrap;html=1;fillColor=#fff2cc;strokeColor=#d6b656;" vertex="1" parent="1">
          <mxGeometry x="140" y="602" width="100" height="30" as="geometry" />
        </mxCell>
        <mxCell id="1Am97N2l7TMJU1slrZH9-2" value="" style="rounded=0;whiteSpace=wrap;html=1;fillColor=#fff2cc;strokeColor=#d6b656;" vertex="1" parent="1">
          <mxGeometry x="140" y="632" width="100" height="30" as="geometry" />
        </mxCell>
        <mxCell id="1Am97N2l7TMJU1slrZH9-3" value="" style="rounded=0;whiteSpace=wrap;html=1;fillColor=#fff2cc;strokeColor=#d6b656;" vertex="1" parent="1">
          <mxGeometry x="140" y="662" width="100" height="30" as="geometry" />
        </mxCell>
        <mxCell id="1Am97N2l7TMJU1slrZH9-4" value="&amp;nbsp;... ..." style="text;html=1;align=center;verticalAlign=middle;resizable=0;points=[];autosize=1;strokeColor=none;fillColor=none;" vertex="1" parent="1">
          <mxGeometry x="165" y="692" width="50" height="30" as="geometry" />
        </mxCell>
        <mxCell id="1Am97N2l7TMJU1slrZH9-5" value="待修正样本集LN" style="rounded=0;whiteSpace=wrap;html=1;fillColor=#dae8fc;strokeColor=#6c8ebf;" vertex="1" parent="1">
          <mxGeometry x="140" y="722" width="100" height="30" as="geometry" />
        </mxCell>
        <mxCell id="1Am97N2l7TMJU1slrZH9-6" value="" style="edgeStyle=orthogonalEdgeStyle;rounded=0;orthogonalLoop=1;jettySize=auto;html=1;" edge="1" parent="1" source="1Am97N2l7TMJU1slrZH9-7" target="1Am97N2l7TMJU1slrZH9-13">
          <mxGeometry relative="1" as="geometry" />
        </mxCell>
        <mxCell id="1Am97N2l7TMJU1slrZH9-7" value="" style="rounded=0;whiteSpace=wrap;html=1;fillColor=#fff2cc;strokeColor=#d6b656;" vertex="1" parent="1">
          <mxGeometry x="330" y="602" width="100" height="30" as="geometry" />
        </mxCell>
        <mxCell id="1Am97N2l7TMJU1slrZH9-8" value="" style="edgeStyle=orthogonalEdgeStyle;rounded=0;orthogonalLoop=1;jettySize=auto;html=1;" edge="1" parent="1" source="1Am97N2l7TMJU1slrZH9-9" target="1Am97N2l7TMJU1slrZH9-15">
          <mxGeometry relative="1" as="geometry" />
        </mxCell>
        <mxCell id="1Am97N2l7TMJU1slrZH9-9" value="" style="rounded=0;whiteSpace=wrap;html=1;fillColor=#fff2cc;strokeColor=#d6b656;" vertex="1" parent="1">
          <mxGeometry x="330" y="662" width="100" height="30" as="geometry" />
        </mxCell>
        <mxCell id="1Am97N2l7TMJU1slrZH9-10" value="" style="edgeStyle=orthogonalEdgeStyle;rounded=0;orthogonalLoop=1;jettySize=auto;html=1;" edge="1" parent="1" source="1Am97N2l7TMJU1slrZH9-11" target="1Am97N2l7TMJU1slrZH9-17">
          <mxGeometry relative="1" as="geometry" />
        </mxCell>
        <mxCell id="1Am97N2l7TMJU1slrZH9-11" value="" style="rounded=0;whiteSpace=wrap;html=1;fillColor=#fff2cc;strokeColor=#d6b656;" vertex="1" parent="1">
          <mxGeometry x="330" y="722" width="100" height="30" as="geometry" />
        </mxCell>
        <mxCell id="1Am97N2l7TMJU1slrZH9-12" value="" style="edgeStyle=orthogonalEdgeStyle;rounded=0;orthogonalLoop=1;jettySize=auto;html=1;" edge="1" parent="1" source="1Am97N2l7TMJU1slrZH9-13" target="1Am97N2l7TMJU1slrZH9-18">
          <mxGeometry relative="1" as="geometry" />
        </mxCell>
        <mxCell id="1Am97N2l7TMJU1slrZH9-13" value="" style="rounded=1;whiteSpace=wrap;html=1;fillColor=#fff2cc;strokeColor=#d6b656;" vertex="1" parent="1">
          <mxGeometry x="475" y="602" width="90" height="30" as="geometry" />
        </mxCell>
        <mxCell id="1Am97N2l7TMJU1slrZH9-14" value="" style="edgeStyle=orthogonalEdgeStyle;rounded=0;orthogonalLoop=1;jettySize=auto;html=1;" edge="1" parent="1" source="1Am97N2l7TMJU1slrZH9-15" target="1Am97N2l7TMJU1slrZH9-20">
          <mxGeometry relative="1" as="geometry" />
        </mxCell>
        <mxCell id="1Am97N2l7TMJU1slrZH9-15" value="" style="rounded=1;whiteSpace=wrap;html=1;fillColor=#fff2cc;strokeColor=#d6b656;" vertex="1" parent="1">
          <mxGeometry x="475" y="662" width="90" height="30" as="geometry" />
        </mxCell>
        <mxCell id="1Am97N2l7TMJU1slrZH9-16" value="" style="edgeStyle=orthogonalEdgeStyle;rounded=0;orthogonalLoop=1;jettySize=auto;html=1;" edge="1" parent="1" source="1Am97N2l7TMJU1slrZH9-17" target="1Am97N2l7TMJU1slrZH9-21">
          <mxGeometry relative="1" as="geometry" />
        </mxCell>
        <mxCell id="1Am97N2l7TMJU1slrZH9-17" value="" style="rounded=1;whiteSpace=wrap;html=1;fillColor=#fff2cc;strokeColor=#d6b656;" vertex="1" parent="1">
          <mxGeometry x="475" y="722" width="90" height="30" as="geometry" />
        </mxCell>
        <mxCell id="1Am97N2l7TMJU1slrZH9-18" value="" style="rounded=0;whiteSpace=wrap;html=1;fillColor=#dae8fc;strokeColor=#6c8ebf;" vertex="1" parent="1">
          <mxGeometry x="605" y="602" width="100" height="30" as="geometry" />
        </mxCell>
        <mxCell id="1Am97N2l7TMJU1slrZH9-19" value="" style="edgeStyle=orthogonalEdgeStyle;rounded=0;orthogonalLoop=1;jettySize=auto;html=1;" edge="1" parent="1" source="1Am97N2l7TMJU1slrZH9-20" target="1Am97N2l7TMJU1slrZH9-22">
          <mxGeometry relative="1" as="geometry" />
        </mxCell>
        <mxCell id="1Am97N2l7TMJU1slrZH9-20" value="" style="rounded=0;whiteSpace=wrap;html=1;fillColor=#dae8fc;strokeColor=#6c8ebf;" vertex="1" parent="1">
          <mxGeometry x="605" y="662" width="100" height="30" as="geometry" />
        </mxCell>
        <mxCell id="1Am97N2l7TMJU1slrZH9-21" value="" style="rounded=0;whiteSpace=wrap;html=1;fillColor=#dae8fc;strokeColor=#6c8ebf;" vertex="1" parent="1">
          <mxGeometry x="605" y="722" width="100" height="30" as="geometry" />
        </mxCell>
        <mxCell id="1Am97N2l7TMJU1slrZH9-22" value="修正样本集LN" style="rounded=0;whiteSpace=wrap;html=1;fillColor=#7EA6E0;strokeColor=#6c8ebf;" vertex="1" parent="1">
          <mxGeometry x="760" y="662" width="100" height="30" as="geometry" />
        </mxCell>
        <mxCell id="1Am97N2l7TMJU1slrZH9-23" value="...&amp;nbsp; ..." style="text;html=1;align=center;verticalAlign=middle;resizable=0;points=[];autosize=1;strokeColor=none;fillColor=none;" vertex="1" parent="1">
          <mxGeometry x="355" y="692" width="50" height="30" as="geometry" />
        </mxCell>
        <mxCell id="1Am97N2l7TMJU1slrZH9-24" value="...&amp;nbsp; ..." style="text;html=1;align=center;verticalAlign=middle;resizable=0;points=[];autosize=1;strokeColor=none;fillColor=none;" vertex="1" parent="1">
          <mxGeometry x="495" y="692" width="50" height="30" as="geometry" />
        </mxCell>
        <mxCell id="1Am97N2l7TMJU1slrZH9-25" value="...&amp;nbsp; ..." style="text;html=1;align=center;verticalAlign=middle;resizable=0;points=[];autosize=1;strokeColor=none;fillColor=none;" vertex="1" parent="1">
          <mxGeometry x="630" y="692" width="50" height="30" as="geometry" />
        </mxCell>
        <mxCell id="1Am97N2l7TMJU1slrZH9-26" value="" style="endArrow=classic;html=1;rounded=0;exitX=1;exitY=0.5;exitDx=0;exitDy=0;entryX=0;entryY=0.5;entryDx=0;entryDy=0;" edge="1" parent="1" source="1Am97N2l7TMJU1slrZH9-18" target="1Am97N2l7TMJU1slrZH9-22">
          <mxGeometry width="50" height="50" relative="1" as="geometry">
            <mxPoint x="510" y="762" as="sourcePoint" />
            <mxPoint x="560" y="712" as="targetPoint" />
          </mxGeometry>
        </mxCell>
        <mxCell id="1Am97N2l7TMJU1slrZH9-27" value="" style="endArrow=classic;html=1;rounded=0;exitX=1;exitY=0.5;exitDx=0;exitDy=0;entryX=0;entryY=0.5;entryDx=0;entryDy=0;" edge="1" parent="1" source="1Am97N2l7TMJU1slrZH9-21" target="1Am97N2l7TMJU1slrZH9-22">
          <mxGeometry width="50" height="50" relative="1" as="geometry">
            <mxPoint x="510" y="762" as="sourcePoint" />
            <mxPoint x="560" y="712" as="targetPoint" />
          </mxGeometry>
        </mxCell>
        <mxCell id="1Am97N2l7TMJU1slrZH9-28" value="" style="shape=flexArrow;endArrow=classic;html=1;rounded=0;" edge="1" parent="1">
          <mxGeometry width="50" height="50" relative="1" as="geometry">
            <mxPoint x="250" y="682" as="sourcePoint" />
            <mxPoint x="320" y="682" as="targetPoint" />
          </mxGeometry>
        </mxCell>
        <mxCell id="1Am97N2l7TMJU1slrZH9-29" value="随机采样" style="text;html=1;align=center;verticalAlign=middle;resizable=0;points=[];autosize=1;strokeColor=none;fillColor=none;" vertex="1" parent="1">
          <mxGeometry x="245" y="647" width="70" height="30" as="geometry" />
        </mxCell>
        <mxCell id="1Am97N2l7TMJU1slrZH9-30" value="" style="shape=curlyBracket;whiteSpace=wrap;html=1;rounded=1;labelPosition=left;verticalLabelPosition=middle;align=right;verticalAlign=middle;fillColor=#7EA6E0;" vertex="1" parent="1">
          <mxGeometry x="112" y="602" width="20" height="150" as="geometry" />
        </mxCell>
        <mxCell id="1Am97N2l7TMJU1slrZH9-31" value="初始标签集" style="text;html=1;align=center;verticalAlign=middle;resizable=0;points=[];autosize=1;strokeColor=none;fillColor=none;" vertex="1" parent="1">
          <mxGeometry x="32" y="662" width="80" height="30" as="geometry" />
        </mxCell>
        <mxCell id="1Am97N2l7TMJU1slrZH9-32" value=" ... ...." style="text;align=center;verticalAlign=middle;resizable=0;points=[];autosize=1;strokeColor=none;fillColor=none;" vertex="1" parent="1">
          <mxGeometry x="255" y="555" width="50" height="30" as="geometry" />
        </mxCell>
        <mxCell id="1Am97N2l7TMJU1slrZH9-33" value=" ... ...." style="text;align=center;verticalAlign=middle;resizable=0;points=[];autosize=1;strokeColor=none;fillColor=none;" vertex="1" parent="1">
          <mxGeometry x="777" y="555" width="50" height="30" as="geometry" />
        </mxCell>
        <mxCell id="1Am97N2l7TMJU1slrZH9-35" value="" style="rounded=0;whiteSpace=wrap;html=1;fillColor=#7EA6E0;strokeColor=#6c8ebf;" vertex="1" parent="1">
          <mxGeometry x="977" y="406" width="100" height="30" as="geometry" />
        </mxCell>
        <mxCell id="1Am97N2l7TMJU1slrZH9-36" value="" style="rounded=0;whiteSpace=wrap;html=1;fillColor=#7EA6E0;strokeColor=#6c8ebf;" vertex="1" parent="1">
          <mxGeometry x="977" y="436" width="100" height="30" as="geometry" />
        </mxCell>
        <mxCell id="1Am97N2l7TMJU1slrZH9-37" value="" style="rounded=0;whiteSpace=wrap;html=1;fillColor=#7EA6E0;strokeColor=#6c8ebf;" vertex="1" parent="1">
          <mxGeometry x="977" y="466" width="100" height="30" as="geometry" />
        </mxCell>
        <mxCell id="1Am97N2l7TMJU1slrZH9-41" value="..." style="text;align=center;verticalAlign=middle;resizable=0;points=[];autosize=1;strokeColor=none;fillColor=none;" vertex="1" parent="1">
          <mxGeometry x="1012" y="496" width="30" height="30" as="geometry" />
        </mxCell>
        <mxCell id="1Am97N2l7TMJU1slrZH9-45" value="" style="rounded=0;whiteSpace=wrap;html=1;fillColor=#7EA6E0;strokeColor=#6c8ebf;" vertex="1" parent="1">
          <mxGeometry x="977" y="536" width="100" height="30" as="geometry" />
        </mxCell>
        <mxCell id="1Am97N2l7TMJU1slrZH9-47" value="" style="endArrow=classic;rounded=0;exitX=1;exitY=0.5;exitDx=0;exitDy=0;entryX=0.009;entryY=0.001;entryDx=0;entryDy=0;entryPerimeter=0;" edge="1" parent="1" source="FxUDSGm3Ph7njkrJ4Way-29" target="1Am97N2l7TMJU1slrZH9-37">
          <mxGeometry width="50" height="50" relative="1" as="geometry">
            <mxPoint x="650" y="530" as="sourcePoint" />
            <mxPoint x="700" y="480" as="targetPoint" />
          </mxGeometry>
        </mxCell>
        <mxCell id="1Am97N2l7TMJU1slrZH9-49" value="" style="endArrow=classic;rounded=0;exitX=1;exitY=0.5;exitDx=0;exitDy=0;entryX=0.011;entryY=-0.024;entryDx=0;entryDy=0;entryPerimeter=0;" edge="1" parent="1" source="FxUDSGm3Ph7njkrJ4Way-86" target="1Am97N2l7TMJU1slrZH9-37">
          <mxGeometry width="50" height="50" relative="1" as="geometry">
            <mxPoint x="650" y="530" as="sourcePoint" />
            <mxPoint x="700" y="480" as="targetPoint" />
          </mxGeometry>
        </mxCell>
        <mxCell id="1Am97N2l7TMJU1slrZH9-50" value="" style="endArrow=classic;rounded=0;exitX=1;exitY=0.5;exitDx=0;exitDy=0;entryX=0.01;entryY=-0.024;entryDx=0;entryDy=0;entryPerimeter=0;" edge="1" parent="1" source="1Am97N2l7TMJU1slrZH9-22" target="1Am97N2l7TMJU1slrZH9-37">
          <mxGeometry width="50" height="50" relative="1" as="geometry">
            <mxPoint x="650" y="530" as="sourcePoint" />
            <mxPoint x="700" y="480" as="targetPoint" />
          </mxGeometry>
        </mxCell>
      </root>
    </mxGraphModel>
  </diagram>
</mxfile>
